<?xml version="1.0" standalone="no"?>
<!DOCTYPE svg PUBLIC "-//W3C//DTD SVG 20010904//EN"
 "http://www.w3.org/TR/2001/REC-SVG-20010904/DTD/svg10.dtd">
<svg version="1.0" xmlns="http://www.w3.org/2000/svg"
 width="48.000000pt" height="48.000000pt" viewBox="0 0 48.000000 48.000000"
 preserveAspectRatio="xMidYMid meet">

<g transform="translate(0.000000,48.000000) scale(0.100000,-0.100000)"
fill="#000000" stroke="none">
<path d="M146 381 c-61 -61 -77 -83 -74 -102 2 -20 9 -24 45 -27 l42 -3 3
-107 3 -107 75 0 75 0 3 107 3 107 42 3 c36 3 43 7 45 27 3 19 -13 41 -74 102
-43 44 -85 79 -94 79 -9 0 -51 -35 -94 -79z m174 -16 l74 -75 -47 0 -47 0 0
-110 0 -110 -60 0 -60 0 0 110 0 110 -47 0 -47 0 74 75 c41 41 77 75 80 75 3
0 39 -34 80 -75z"/>
</g>
</svg>
